<svg width="44" height="29" viewBox="0 0 44 29" fill="none" xmlns="http://www.w3.org/2000/svg">
<g clip-path="url(#clip0_0_13442)">
<path fill-rule="evenodd" clip-rule="evenodd" d="M27.289 10.6921C28.0193 10.6921 28.6114 10.1919 28.6114 9.57468C28.6114 8.95778 28.0193 8.45837 27.289 8.45837C26.5587 8.45837 25.9663 8.95778 25.9663 9.57468C25.9666 10.1919 26.5587 10.6921 27.289 10.6921Z" fill="#005E9E"/>
<path fill-rule="evenodd" clip-rule="evenodd" d="M25.6235 16.471C25.6235 16.1399 25.3893 15.8533 25.065 15.8483C24.2219 15.8345 21.9714 15.8483 21.9714 15.8483C21.9714 15.8483 22 12.8122 21.9976 10.9704H21.9987C22.0027 10.5973 22.0134 9.93801 22.0083 9.72314C21.9896 8.97074 20.8642 8.73569 20.2298 8.70581C19.6543 8.67829 19.6859 9.17609 19.6859 9.17609V16.665C19.6859 17.1485 20.2136 17.2634 20.2136 17.2634H25.6296C25.6296 17.2634 25.6235 16.8669 25.6235 16.471Z" fill="#005E9E"/>
<path fill-rule="evenodd" clip-rule="evenodd" d="M33.1051 11.3069C32.8541 8.73316 34.3799 8.8565 34.9429 8.98588C35.1546 9.01741 35.157 8.80381 35.1533 8.74296C35.1306 8.53257 35.0185 8.3539 34.8648 8.22584C34.3185 7.7706 33.3027 7.82829 33.3027 7.82829C31.4574 7.82829 30.8834 9.18652 30.8834 10.297C30.8834 10.8689 30.8249 11.3069 30.8249 11.3069H30.2673C29.9484 11.3069 29.8193 11.6382 29.8193 11.8076V12.2173H30.8099V15.0131C28.8177 16.6939 28.4127 15.7431 28.4127 15.3273C28.4129 14.5855 28.4153 13.1915 28.4153 12.2859C28.4153 11.5417 27.3317 11.2987 26.6882 11.2683C26.0435 11.2376 26.1354 11.7388 26.1354 11.7388V15.4749C26.1354 16.7725 26.6567 17.3828 27.9216 17.3828C29.1542 17.3828 30.3795 16.4102 30.8407 15.8791C30.8407 15.8791 30.8407 16.8969 30.8602 17.6607C30.8631 17.774 30.8669 17.8664 30.8709 17.9288C30.9016 18.4153 31.3927 18.3554 31.3927 18.3554C33.1455 18.3549 33.1051 17.1264 33.1051 17.1264V12.2485H34.1992C34.4171 12.2485 34.79 12.1366 34.79 11.7301C34.79 11.4824 34.7844 11.3069 34.7844 11.3069H33.1051Z" fill="#005E9E"/>
<path fill-rule="evenodd" clip-rule="evenodd" d="M41.0124 15.5736C40.3978 15.9476 39.66 16.2514 38.556 16.2514C37.5119 16.2514 36.746 15.6583 36.746 14.4325C36.746 13.8782 37.0909 12.5081 38.436 12.5081C38.9559 12.4978 39.2513 12.8342 39.2513 13.2661C39.2513 13.8304 38.6076 14.5087 37.2293 14.5883C37.4338 15.1833 38.096 15.3333 38.6317 15.3333C39.4325 15.3333 41.3572 14.7558 41.1995 12.98C41.0768 11.5983 39.7611 11.1886 38.6846 11.1886C36.1643 11.1886 34.237 12.7249 34.4164 14.8082C34.6123 17.0837 36.661 17.3757 38.0131 17.3757C39.3839 17.3757 40.6395 16.7998 41.1041 16.1588C41.1931 16.0357 41.2928 15.8706 41.2928 15.7266C41.2928 15.5667 41.1677 15.4786 41.0124 15.5736Z" fill="#005E9E"/>
<path fill-rule="evenodd" clip-rule="evenodd" d="M23.355 6.21955V3.90253H21.525V6.21955H19.6799V0.443237H21.525V2.6126H23.355V0.443237H25.2091V6.21955H23.355Z" fill="#ED1C24"/>
<path fill-rule="evenodd" clip-rule="evenodd" d="M29.4574 3.08711C29.4574 1.88928 29.2066 1.6249 28.3659 1.6249H27.8949V5.03865H28.3659C29.2066 5.03865 29.4574 4.74305 29.4574 3.54523V3.08711ZM28.3037 6.32143C27.4862 6.32143 26.8973 6.29046 26.1045 6.21953V0.44322C26.8973 0.372822 27.463 0.342651 28.3037 0.342651C30.3451 0.342651 31.2719 1.11994 31.2719 3.08711L31.2722 3.54523C31.2722 5.54334 30.3686 6.32143 28.3037 6.32143Z" fill="#ED1C24"/>
<path fill-rule="evenodd" clip-rule="evenodd" d="M33.8408 1.68737V2.7137H36.0633V3.86415H33.8408V6.21955H31.9956V0.443237H36.236V1.68737H33.8408Z" fill="#ED1C24"/>
<path fill-rule="evenodd" clip-rule="evenodd" d="M39.3162 6.36007C37.4857 6.36007 36.5669 5.7146 36.5669 3.59948V3.05535C36.5669 0.948446 37.4857 0.303223 39.316 0.303223C39.7787 0.303223 40.7052 0.388706 41.0193 0.473922V1.69503C40.6034 1.66354 40.0455 1.63258 39.5429 1.63258C38.7974 1.63231 38.4279 1.85753 38.4279 3.05535V3.59948C38.4279 4.81317 38.7974 5.03864 39.5429 5.03864C40.0455 5.03864 40.6034 5.00744 41.0193 4.97596V6.18912C40.7052 6.28225 39.7787 6.36007 39.3162 6.36007Z" fill="#ED1C24"/>
<path fill-rule="evenodd" clip-rule="evenodd" d="M17.1838 17.2643V17.264L12.331 12.4592V12.4598H4.97685V5.17915H4.97742L0.124558 0.374634H0.124023V17.2643H17.1838Z" fill="#B11116"/>
<path fill-rule="evenodd" clip-rule="evenodd" d="M4.97735 5.17915H12.3309V12.4592L17.1838 17.264V0.374634H0.124512L4.97735 5.17915Z" fill="#ED1C24"/>
<path fill-rule="evenodd" clip-rule="evenodd" d="M4.55977 24.0186C5.00485 23.485 4.99124 23.3644 4.99124 23.3644C4.99124 23.3644 4.88322 23.0172 4.49882 23.0036C4.11416 22.9904 3.66908 23.4377 3.5814 23.9522C3.49372 24.4661 3.93212 24.7731 4.55977 24.0186ZM9.34232 21.8685C9.43586 21.9183 9.21988 22.3926 9.21988 22.3926C8.299 22.1745 7.48285 23.4149 7.33799 23.8399C7.17147 24.3288 7.18399 24.717 7.18399 24.717L6.81781 24.8546C6.63229 24.7784 6.80362 24.0718 6.80362 24.0718C5.11848 25.638 4.9621 24.0281 4.9621 24.0281C4.18633 24.9981 3.06976 25.101 3.12162 24.1684C3.17027 23.2992 4.03583 22.7051 4.61591 22.7205C5.19546 22.7369 5.43311 23.1714 5.43311 23.1714C5.38926 23.3593 5.12648 24.419 5.80786 24.415C6.08721 24.4132 6.83837 23.7008 6.83837 23.7008C6.83837 23.7008 6.86508 23.5414 6.87393 23.3546C6.88222 23.1669 6.86965 22.8769 6.86965 22.8769C6.86965 22.8769 7.134 22.7763 7.27196 22.7901C7.40987 22.8033 7.35508 22.9396 7.35508 22.9396C7.35508 22.9396 7.15114 23.5819 7.15461 23.6219C7.15757 23.6629 7.17118 23.6565 7.17118 23.6565C8.07816 21.7735 9.24849 21.8185 9.34232 21.8685Z" fill="#ED1C24"/>
<path fill-rule="evenodd" clip-rule="evenodd" d="M27.9592 23.2238C27.8052 23.4197 27.7528 23.733 27.7528 23.733C27.9838 23.7087 28.2516 23.6325 28.4328 23.5626C28.7662 23.4348 28.8293 23.0142 28.5571 22.9605C28.3241 22.9131 28.1257 23.0134 27.9592 23.2238ZM29.346 24.1493C29.3874 24.162 29.4727 24.2859 29.4593 24.3595C29.3933 24.5291 28.848 24.7795 28.2778 24.78C27.9006 24.7739 27.2767 24.6432 27.3225 23.9421C27.3372 23.7486 27.3946 23.5825 27.459 23.4438C27.6761 22.9798 28.0578 22.7951 28.3003 22.7218C28.4232 22.6847 28.5946 22.6681 28.7087 22.6792C28.9282 22.699 29.2426 22.789 29.215 23.1402C29.1701 23.706 27.7504 23.936 27.7504 23.936C27.7499 23.9919 27.7809 24.4558 28.4401 24.496C29.0164 24.5313 29.3032 24.1356 29.346 24.1493Z" fill="#ED1C24"/>
<path fill-rule="evenodd" clip-rule="evenodd" d="M33.6709 21.5361C33.7653 21.6935 33.6755 21.8293 33.5229 21.9481C33.3534 22.0802 33.0863 22.0773 33.0193 21.9447C32.9513 21.8121 33.043 21.6131 33.2227 21.5001C33.4028 21.3876 33.5953 21.4088 33.6709 21.5361Z" fill="#ED1C24"/>
<path fill-rule="evenodd" clip-rule="evenodd" d="M31.4459 22.7926C31.6702 22.7244 32.1532 22.5237 32.0597 22.7495C31.9666 22.9747 31.8512 23.6321 31.8172 23.9124C31.7833 24.1932 31.6528 25.1817 31.5854 25.5323C31.5178 25.883 31.1877 26.5177 30.6194 26.5568C30.1815 26.5873 29.8963 26.4628 29.827 26.2821C29.7583 26.1019 29.9228 25.7729 29.984 25.8073C30.0457 25.8431 30.2874 26.3088 30.6752 26.2837C31.0623 26.2588 31.1756 25.6776 31.2414 25.0514C31.3072 24.4255 31.4248 22.9337 31.4459 22.7926Z" fill="#ED1C24"/>
<path fill-rule="evenodd" clip-rule="evenodd" d="M33.2896 22.9085C33.2896 22.9085 32.4832 24.3403 33.1801 24.3641C33.7678 24.3842 34.2121 23.8261 34.2121 23.8261C34.2121 23.8261 34.4733 22.8527 34.534 22.8281C34.5957 22.8024 34.9315 22.922 34.9016 23.0319C34.871 23.1422 34.3028 24.2672 34.8794 24.3573C35.456 24.4475 35.8559 23.8062 35.8559 23.8062C35.8559 23.8062 36.2298 22.8199 36.2705 22.8096C36.3111 22.7997 36.7415 22.8746 36.7065 23.0525C36.6455 23.3629 36.1408 23.9306 36.1205 24.0142C35.9524 24.3305 35.8195 24.9559 35.7701 25.3394C35.7235 25.6966 35.7551 26.3429 35.6941 26.4284C35.6334 26.5137 35.3346 26.5459 35.2132 26.4408C35.2132 26.4408 35.2894 25.6643 35.426 25.1536C35.5623 24.6431 35.6789 24.3226 35.6789 24.3226C35.6789 24.3226 35.0916 24.8484 34.6519 24.7828C34.2121 24.7174 34.2121 24.2172 34.2121 24.2172C34.2121 24.2172 33.6086 24.7913 32.9911 24.7614C32.3738 24.7315 32.4529 24.0116 32.4885 23.8417C32.5235 23.6718 32.6521 23.0578 32.7865 22.8582C32.8561 22.7553 32.9483 22.778 33.0391 22.8079C33.1303 22.8384 33.2896 22.9088 33.2896 22.9085Z" fill="#ED1C24"/>
<path fill-rule="evenodd" clip-rule="evenodd" d="M38.4765 24.2522C38.8435 23.9243 38.886 23.4059 38.6831 23.1611C38.4853 22.9226 38.0025 22.9271 37.5893 23.2838C37.2163 23.6051 37.1573 24.1347 37.3532 24.3485C37.5906 24.6082 38.1089 24.5804 38.4765 24.2522ZM39.1723 23.1084C39.4412 23.5625 39.1397 24.2316 38.4989 24.6037C37.8584 24.9752 37.1225 24.9077 36.8523 24.455C36.6301 24.0818 36.879 23.3206 37.5256 22.9599C38.2437 22.5598 38.9034 22.6548 39.1723 23.1084Z" fill="#ED1C24"/>
<path fill-rule="evenodd" clip-rule="evenodd" d="M40.92 25.011C40.8128 25.3649 40.2683 25.1817 40.2199 25.0105C40.0534 24.4325 41.0414 24.5127 40.92 25.011Z" fill="#ED1C24"/>
<path fill-rule="evenodd" clip-rule="evenodd" d="M0.162513 24.6418C0.136049 24.6328 0.121881 24.6053 0.124287 24.5703C0.132039 24.4563 0.164652 24.1583 0.39481 24.1583C0.693935 24.1583 1.19274 24.5539 1.7092 24.4835C1.7092 24.4835 2.21255 24.4769 2.2465 24.0246C2.28045 23.5726 1.72363 23.2113 1.4761 23.0152C1.23845 22.8265 0.642878 22.3753 0.715052 21.7877C0.801128 21.0885 1.64958 20.9591 1.93428 20.9557C2.32055 20.9504 3.09148 21.1206 3.00968 21.5109C2.99204 21.643 2.83727 21.7959 2.6865 21.829C2.64534 21.7708 2.62582 21.7457 2.59241 21.7028C2.4796 21.5578 2.22806 21.205 1.79715 21.227C1.26225 21.2534 1.19328 21.7055 1.19141 21.86C1.18874 22.0601 1.28229 22.2917 2.01982 22.854C2.72312 23.391 2.78086 23.7436 2.72847 24.0246C2.67634 24.3062 2.29141 24.8178 1.42317 24.8225C0.704893 24.8271 0.289755 24.6844 0.162513 24.6418Z" fill="#ED1C24"/>
<path fill-rule="evenodd" clip-rule="evenodd" d="M20.9674 24.0193C21.4258 23.4955 21.4352 23.3643 21.4352 23.3643C21.4352 23.3643 21.2911 23.017 20.9067 23.0038C20.522 22.9903 20.0769 23.4379 19.989 23.9521C19.9019 24.4663 20.3418 24.7312 20.9674 24.0193ZM12.6226 22.8178C12.6204 22.918 11.8372 24.3789 12.6552 24.3964C13.2013 24.3983 14.1115 23.5924 14.1115 23.5924C14.1115 23.5924 14.2981 22.8913 14.2848 22.8792C14.2714 22.8664 13.795 22.9056 13.7809 22.8699C13.7664 22.8344 13.8212 22.6333 13.8469 22.614C13.8731 22.5936 14.3248 22.6312 14.3291 22.6034C14.3336 22.5764 14.3828 22.1003 14.3294 21.9923C14.3294 21.9923 14.5881 21.7983 14.8218 21.8433C14.8985 21.8658 14.987 21.9309 14.7977 22.5695C14.7977 22.5695 15.331 22.5571 15.5606 22.4674C15.6079 22.5192 15.6454 22.677 15.5646 22.7693C15.4842 22.8625 14.7159 22.8572 14.7159 22.8572C14.7159 22.8572 14.4422 23.6263 14.4053 24.1223C14.3943 24.2522 14.4737 24.4864 14.8239 24.4575C15.2751 24.42 15.8483 23.9513 16.0557 23.6988C16.0557 23.6988 16.2688 22.7185 16.3783 21.9928C16.3949 21.816 16.4329 21.3608 16.3928 21.2799C16.3928 21.2799 16.6638 21.0991 16.8972 21.1444C16.9718 21.166 17.0047 21.3034 16.8381 21.9867C16.7269 22.5642 16.373 24.018 16.4422 24.1887C16.5465 24.0466 17.6409 22.6997 17.983 22.6262C18.1704 22.5926 18.2878 22.7865 18.2683 22.9072C18.2488 23.0271 17.9499 24.3758 18.6863 24.3692C19.2293 24.3663 19.6559 23.6498 19.6559 23.6498C19.6559 23.6498 20.0454 22.7148 21.0369 22.7098C21.6239 22.7349 21.8762 23.165 21.8762 23.165C21.8762 23.165 21.6062 24.3496 22.3368 24.3776C22.8174 24.3824 23.1158 24.0119 23.1158 24.0119C23.1158 24.0119 23.2981 24.1423 23.2981 24.1873C23.2981 24.2321 22.7669 24.7325 22.1144 24.7277C21.4619 24.723 21.4162 24.0119 21.4162 24.0119C21.4162 24.0119 20.7736 24.7579 20.0606 24.8034C19.5495 24.8384 19.5447 24.1918 19.5447 24.1918C19.5447 24.1918 19.1408 24.7277 18.438 24.7277C17.7347 24.7277 17.6513 23.9769 17.7548 23.2407C17.763 23.1907 17.6019 23.2811 17.4759 23.4016C17.3506 23.5212 16.8737 24.0037 16.59 24.7029C16.5518 24.7529 16.0616 24.6875 16.0602 24.6026C16.0589 24.5174 16.0912 24.127 16.0669 24.1223C16.0423 24.1167 15.2944 24.7706 14.4764 24.7926C13.7496 24.8132 14.0329 24.0312 14.0329 24.0312C14.0329 24.0312 13.2361 24.6648 12.5202 24.7092C11.8043 24.7545 11.8901 24.0068 11.8901 24.0068C11.8901 24.0068 11.2689 24.7405 10.6637 24.713C9.80428 24.6735 10.3902 23.1234 10.5947 22.7987C10.5974 22.7942 10.6094 22.7847 10.6196 22.7847C10.6904 22.7858 11.1237 22.6992 11.121 22.7759C11.1184 22.863 10.9021 23.0729 10.7909 23.3232C10.6797 23.5736 10.3587 24.1945 10.8968 24.285C11.4354 24.3747 11.8794 23.4635 11.8794 23.4635C11.8794 23.4635 12.035 22.9937 12.1176 22.7968C12.2668 22.7601 12.6234 22.7407 12.6226 22.8178Z" fill="#ED1C24"/>
<path fill-rule="evenodd" clip-rule="evenodd" d="M25.496 21.9474C25.407 22.5839 25.172 23.9555 25.1643 24.0159C25.1552 24.0855 25.1966 24.0558 25.1966 24.0558C25.5131 23.4897 26.5324 22.5407 26.8003 22.5407C27.059 22.5407 27.0015 22.8946 27.0015 22.8946C26.7182 22.8197 25.8181 23.6417 25.8181 23.6417C25.8181 23.6417 26.0186 23.8521 26.4073 24.1572C26.7957 24.4629 27.3274 24.6328 27.3228 24.6778C27.3186 24.7228 27.0769 24.9234 26.9687 24.9334C26.726 24.9583 25.6059 23.8915 25.6059 23.8915C25.3135 24.1368 25.1731 24.6082 25.1467 24.663C25.1199 24.7177 24.905 24.7077 24.7794 24.7029C24.6831 24.6992 24.9969 22.9663 25.0857 21.8783C25.1044 21.6462 25.0937 21.3545 25.0574 21.2818C25.0576 21.2818 25.3143 21.0706 25.5473 21.1155C25.623 21.1378 25.5493 21.5665 25.496 21.9474Z" fill="#ED1C24"/>
<path fill-rule="evenodd" clip-rule="evenodd" d="M40.892 23.6077C40.9201 23.9737 41.0922 23.9399 41.0559 24.0248C40.9952 24.1659 40.869 24.2554 40.7404 24.2408C40.4058 24.2032 40.4435 23.4945 40.5033 23.0075C40.5785 22.393 40.7124 22.001 40.7498 21.6104C40.7709 21.3921 40.7629 21.1181 40.7279 21.0496C40.7279 21.0496 41.0294 20.8619 41.2598 20.9038C41.3344 20.925 41.2572 21.3277 41.2002 21.6858C41.1508 22.0005 40.8115 23.0827 40.892 23.6077Z" fill="#ED1C24"/>
<path fill-rule="evenodd" clip-rule="evenodd" d="M32.2147 21.4315C32.3091 21.5895 32.2105 21.7162 32.0578 21.8351C31.8884 21.9674 31.6302 21.9729 31.5631 21.84C31.4949 21.7077 31.5866 21.5087 31.7667 21.3957C31.9466 21.283 32.1391 21.3044 32.2147 21.4315Z" fill="#ED1C24"/>
</g>
<defs>
<clipPath id="clip0_0_13442">
<rect width="41.4167" height="26.8649" fill="white"/>
</clipPath>
</defs>
</svg>
